<?xml version="1.0" encoding="utf-8"?><svg viewBox="0 0 151 75" xmlns="http://www.w3.org/2000/svg" xmlns:xlink="http://www.w3.org/1999/xlink"><style>:root>svg{display:none}:root>svg:target{display:block}</style><svg fill="none" viewBox="0 0 151 63" id="aws" xmlns="http://www.w3.org/2000/svg"><g clip-path="url(#aa)"><g clip-path="url(#ab)"><path d="M52.887 22.989c-.117 3.638 1.717 5.249 1.762 6.272a1.302 1.302 0 0 1-.664 1.007l-2.073 1.44a1.736 1.736 0 0 1-.913.308c-.07-.004-1.326.294-3.317-4.114a12.717 12.717 0 0 1-4.518 3.531 12.826 12.826 0 0 1-5.625 1.2c-2.637.142-9.784-1.485-9.416-9.03-.258-6.148 5.517-9.967 11.49-9.645 1.15.004 3.5.06 7.612 1.008v-2.51c.436-4.25-2.381-7.547-7.259-7.052-.389.001-3.142-.08-7.426 1.624-1.192.543-1.344.453-1.741.453-1.2 0-.706-3.45-.476-3.887.844-1.028 5.809-2.948 10.681-2.92a12.522 12.522 0 0 1 9.022 2.775 11.266 11.266 0 0 1 2.3 3.915 11.2 11.2 0 0 1 .562 4.495l-.001 11.13Zm-14 5.202c5.254-.075 7.478-3.207 7.985-4.894.398-1.614.332-2.636.332-4.4-1.566-.374-3.821-.78-6.409-.783-2.454-.183-6.936.904-6.761 5.181-.201 2.697 1.801 5.044 4.853 4.896Zm27.688 3.703c-1.273.115-1.866-.781-2.054-1.666L56.454 3.782a6.087 6.087 0 0 1-.311-1.379.736.736 0 0 1 .136-.55.748.748 0 0 1 .49-.293c.038-.006-.346 0 3.604 0 1.422-.141 1.885.969 2.033 1.666l5.786 22.62 5.372-22.62c.086-.517.476-1.778 2.073-1.645h2.78c.352-.029 1.8-.08 2.054 1.666l5.414 22.91 5.973-22.91c.077-.35.44-1.827 2.054-1.666h3.194c.138-.02.996-.13.85 1.378-.069.297.553-1.712-8.544 27.29-.187.885-.781 1.781-2.055 1.665H84.33c-1.772.185-2.027-1.551-2.054-1.726L76.904 8.162l-5.31 22.003c-.026.175-.28 1.912-2.054 1.727h-2.965v.002Zm44.302.904c-.952.002-5.495-.048-9.292-1.974a2.068 2.068 0 0 1-.925-.766 2.037 2.037 0 0 1-.34-1.147v-1.727c0-1.357 1.005-1.108 1.431-.946 1.626.652 2.669 1.147 4.667 1.542 5.937 1.21 8.548-.37 9.188-.72 2.13-1.254 2.299-4.124.85-5.613-1.697-1.412-2.507-1.465-8.606-3.373-.752-.208-7.08-2.186-7.094-8.41-.099-4.536 4.058-9.024 11.262-8.987 2.052-.002 7.521.663 9.002 2.509.218.335.327.73.311 1.13V5.94c0 .713-.263 1.07-.789 1.07-1.249-.138-3.465-1.794-7.964-1.727-1.116-.057-6.462.147-6.222 4.011-.07 3.045 4.311 4.188 4.811 4.32 5.907 1.761 7.881 2.054 10.225 4.75 2.777 3.574 1.28 7.758.705 8.905-3.091 6.022-11.084 5.532-11.22 5.529Zm6.512 16.843C106.045 57.948 89.577 62.37 75.516 62.37c-18.973.124-37.306-6.793-51.396-19.392-1.058-.946-.125-2.242 1.161-1.521a103.933 103.933 0 0 0 51.333 13.511 102.84 102.84 0 0 0 39.136-7.958c1.908-.803 3.527 1.253 1.639 2.63Zm4.729-5.347c-1.451-1.85-9.603-.865-13.253-.432-1.1.123-1.286-.823-.29-1.522 6.491-4.524 17.152-3.228 18.377-1.707 1.223 1.521-.332 12.112-6.409 17.172-.933.782-1.825.37-1.411-.658 1.368-3.414 4.437-11.002 2.986-12.853Z" fill="#737373"/></g></g><defs><clipPath id="aa"><path fill="#fff" transform="translate(0 .5)" d="M0 0h151v62H0z"/></clipPath><clipPath id="ab"><path fill="#fff" transform="translate(23.5 .5)" d="M0 0h104v62H0z"/></clipPath></defs></svg><svg fill="none" viewBox="0 0 73 72" id="contact-icon-1" xmlns="http://www.w3.org/2000/svg"><g clip-path="url(#ba)"><path d="M56.929 38.995a3.785 3.785 0 0 0-5.357 0l-6.039 6.038c-2.8-.833-8.023-2.727-11.334-6.038-3.311-3.311-5.206-8.536-6.039-11.335l6.039-6.039a3.784 3.784 0 0 0 0-5.357L19.045 1.111a3.784 3.784 0 0 0-5.357 0L3.414 11.385a7.571 7.571 0 0 0-2.22 5.436c.087 5.395 1.516 24.132 16.283 38.9C32.244 70.487 50.98 71.911 56.38 72.002h.106c2 0 3.89-.788 5.323-2.22l10.274-10.274a3.785 3.785 0 0 0 0-5.357L56.929 38.995Zm-.481 25.427c-4.728-.08-20.904-1.348-33.614-14.062C10.082 37.608 8.847 21.375 8.77 16.742l7.596-7.596 9.796 9.797-4.898 4.898a3.789 3.789 0 0 0-1.03 3.455c.09.436 2.314 10.767 8.603 17.056 6.289 6.288 16.62 8.512 17.055 8.603a3.754 3.754 0 0 0 3.456-1.027l4.902-4.898 9.796 9.797-7.6 7.595Z" fill="#0D5C63"/></g><defs><clipPath id="ba"><path fill="#fff" transform="translate(.5)" d="M0 0h72v72H0z"/></clipPath></defs></svg><svg fill="none" viewBox="0 0 73 72" id="contact-icon-2" xmlns="http://www.w3.org/2000/svg"><path d="M29.5 42C37.497 42 44 35.721 44 28s-6.503-14-14.5-14S15 20.279 15 28s6.503 14 14.5 14Zm0-21c3.998 0 7.25 3.14 7.25 7s-3.252 7-7.25 7-7.25-3.14-7.25-7 3.252-7 7.25-7Z" fill="#fff"/><path d="M27.434 70.34a3.564 3.564 0 0 0 4.132 0C32.65 69.577 58.103 51.262 58 28.4 58 12.741 45.214 0 29.5 0S1 12.741 1 28.383C.897 51.263 26.35 69.577 27.434 70.34ZM29.5 7.1c11.788 0 21.375 9.553 21.375 21.318C50.95 44.173 35.243 58.32 29.5 62.96 23.76 58.316 8.05 44.166 8.125 28.4c0-11.747 9.587-21.3 21.375-21.3Z" fill="#fff"/></svg><svg fill="none" viewBox="0 0 73 72" id="contact-icon-3" xmlns="http://www.w3.org/2000/svg"><g clip-path="url(#da)"><path d="M70.348 2.162a2.853 2.853 0 0 0-1.417-.804 2.78 2.78 0 0 0-1.611.114L3.862 25.471c-.548.216-1.019.6-1.351 1.1A3.084 3.084 0 0 0 2 28.277c0 .608.178 1.203.51 1.704.333.5.804.885 1.352 1.1l27.69 11.52L42.63 71.398a2.983 2.983 0 0 0 1.026 1.35 2.81 2.81 0 0 0 1.57.54 2.811 2.811 0 0 0 1.622-.561 2.99 2.99 0 0 0 1.032-1.419L70.954 5.312c.197-.53.244-1.109.137-1.667a3.043 3.043 0 0 0-.743-1.483ZM45.225 61.889 37.177 40.89l13.817-14.37-4.067-4.229-13.932 14.49-20.076-8.49L63.483 9.3 45.225 61.89Z" fill="#0D5C63"/></g><defs><clipPath id="da"><path fill="#fff" transform="translate(.5)" d="M0 0h72v72H0z"/></clipPath></defs></svg><svg fill="none" viewBox="0 0 24 24" id="facebook" xmlns="http://www.w3.org/2000/svg"><path d="M23.04 0H.96A.959.959 0 0 0 0 .96v22.08c0 .531.429.96.96.96h22.08c.531 0 .96-.429.96-.96V.96a.959.959 0 0 0-.96-.96Zm-2.772 7.005h-1.917c-1.503 0-1.794.714-1.794 1.764v2.313h3.588l-.468 3.621h-3.12V24h-3.741v-9.294H9.687v-3.624h3.129v-2.67c0-3.099 1.893-4.788 4.659-4.788 1.326 0 2.463.099 2.796.144v3.237h-.003Z" fill="#335BF5"/></svg><svg fill="none" viewBox="0 0 24 25" id="footer-icon-1" xmlns="http://www.w3.org/2000/svg"><g clip-path="url(#fa)"><path d="M18.848 12.977a1.199 1.199 0 0 0-1.697 0l-1.913 1.912c-.886-.263-2.541-.864-3.59-1.912-1.049-1.05-1.649-2.704-1.913-3.59l1.913-1.913a1.2 1.2 0 0 0 0-1.697l-4.8-4.8a1.199 1.199 0 0 0-1.697 0L1.897 4.23a2.398 2.398 0 0 0-.703 1.722c.027 1.709.48 7.644 5.157 12.322 4.678 4.677 10.613 5.128 12.323 5.157h.033c.634 0 1.233-.25 1.686-.703l3.255-3.254a1.2 1.2 0 0 0 0-1.697l-4.8-4.801Zm-.153 8.054c-1.497-.025-6.621-.427-10.647-4.454-4.04-4.04-4.43-9.181-4.454-10.649L6 3.522l3.103 3.103L7.55 8.177a1.2 1.2 0 0 0-.326 1.094c.029.138.733 3.41 2.725 5.402 1.992 1.993 5.264 2.697 5.402 2.726a1.19 1.19 0 0 0 1.095-.326L18 15.522l3.103 3.103-2.408 2.406Z" fill="#8EC2F2"/></g><defs><clipPath id="fa"><path fill="#fff" transform="translate(0 .625)" d="M0 0h24v24H0z"/></clipPath></defs></svg><svg fill="none" viewBox="0 0 24 31" id="footer-icon-2" xmlns="http://www.w3.org/2000/svg"><g clip-path="url(#ga)" fill="#8EC2F2"><path d="M12 18.25c3.309 0 6-2.691 6-6s-2.691-6-6-6-6 2.691-6 6 2.691 6 6 6Zm0-9c1.654 0 3 1.345 3 3 0 1.654-1.346 3-3 3-1.655 0-3-1.346-3-3 0-1.655 1.345-3 3-3Z"/><path d="M11.13 29.97a1.497 1.497 0 0 0 1.74 0c.456-.322 11.173-8.06 11.13-17.72 0-6.617-5.384-12-12-12S0 5.633 0 12.242c-.043 9.668 10.674 17.406 11.13 17.729ZM12 3.25c4.963 0 9 4.036 9 9.007.031 6.657-6.582 12.635-9 14.595-2.416-1.962-9.031-7.94-9-14.602 0-4.964 4.037-9 9-9Z"/></g><defs><clipPath id="ga"><path fill="#fff" transform="translate(0 .25)" d="M0 0h24v30H0z"/></clipPath></defs></svg><svg fill="none" viewBox="0 0 24 27" id="footer-icon-3" xmlns="http://www.w3.org/2000/svg"><g clip-path="url(#ha)"><path d="M23.71 2.216a.99.99 0 0 0-.492-.279.964.964 0 0 0-.558.04l-22 8.32c-.19.075-.353.208-.468.382a1.07 1.07 0 0 0 0 1.181c.115.174.278.307.468.382l9.6 3.993 3.84 9.984c.072.19.196.352.356.468.16.116.349.182.544.188a.975.975 0 0 0 .562-.195c.165-.123.29-.294.358-.492l8-22.88a1.08 1.08 0 0 0-.21-1.092ZM15 22.923l-2.79-7.28L17 10.66l-1.41-1.466-4.83 5.023-6.96-2.943L21.33 4.69 15 22.923Z" fill="#8EC2F2"/></g><defs><clipPath id="ha"><path fill="#fff" transform="translate(0 .875)" d="M0 0h24v26H0z"/></clipPath></defs></svg><svg fill="none" viewBox="0 0 103 35" id="hooli" xmlns="http://www.w3.org/2000/svg"><g clip-path="url(#ia)"><path d="m23.255 32.425 6.164.128a43.043 43.043 0 0 1-6.164-2.682v2.554Zm9.286-.846v.846l-3.122.128c5.875 1.995 11.25 2.266 15.241 1.149-3.203.032-7.37-.415-12.119-2.123ZM98.35 13.19c2.559 0 4.651-2.059 4.651-4.613 0-2.554-2.076-3.91-4.651-3.91-2.56 0-4.651 1.372-4.651 3.91 0 2.538 2.076 4.613 4.65 4.613Zm-4.667 19.235H103V14.786h-9.318v17.639Zm-11.862 0h9.319V1.25L81.82 5.608v26.817Zm-4.989-19.06c-2.929-2.904-8.11-2.729-8.11-2.729s-5.2-.175-8.112 2.73c-2.93 2.905-2.704 5.411-2.704 8.396 0 2.985-.225 5.475 2.704 8.38 2.929 2.905 8.111 2.73 8.111 2.73s5.198.175 8.111-2.73c2.93-2.905 2.704-5.395 2.704-8.38-.016-3.001.21-5.507-2.704-8.396Zm-6.405 11.478c0 .574-.29 1.995-1.722 1.995s-1.722-1.42-1.722-1.995v-6.45c0-1.388 1.175-1.739 1.722-1.739.547 0 1.722.335 1.722 1.74v6.449ZM53.335 13.366c-2.93-2.905-8.112-2.73-8.112-2.73s-5.182-.175-8.11 2.73a9.582 9.582 0 0 0-.854.957C30.111 9.6 24.591 6.901 19.827 4.57V1.266l-3.62 1.692C7.45-.569 1.882.053.546 2.974c0 0-4.007 5.236 9.946 17.687v11.764h9.318V27.86a47.748 47.748 0 0 1-3.122-2.171 99.376 99.376 0 0 1-6.18-5.012v-4.949c2.108 2.347 4.909 5.012 8.594 8.03l.724.574v-4.757c0-1.101.274-2.905 1.738-2.905 1.465 0 1.706 1.101 1.706 2.394v7.774a43.04 43.04 0 0 0 9.286 4.725V16.574c0-2.985-2.156-5.97-6.534-5.97a7.13 7.13 0 0 0-6.196 3.496V5.432c6.744 3.337 13.503 7.423 16.078 9.306-1.642 2.331-1.497 4.486-1.497 6.976 0 2.985-.225 5.475 2.704 8.38 2.93 2.905 8.111 2.73 8.111 2.73s5.199.175 8.112-2.73c2.929-2.905 2.687-5.395 2.687-8.38 0-2.953.242-5.46-2.687-8.348ZM10.493 5.608v10.104c-7.838-8.7-6.26-12.131-5.665-12.626 2.173-1.82 6.035-1.277 10.364.335l-4.699 2.187Zm36.452 19.235c0 .574-.29 1.995-1.722 1.995s-1.722-1.42-1.722-1.995v-6.45c0-1.388 1.175-1.739 1.722-1.739.547 0 1.722.335 1.722 1.74v6.449Z" fill="#737373"/></g><defs><clipPath id="ia"><path fill="#fff" transform="translate(0 .5)" d="M0 0h103v34H0z"/></clipPath></defs></svg><svg fill="none" viewBox="0 0 24 24" id="instagram" xmlns="http://www.w3.org/2000/svg"><path d="M12.002 5.847A6.144 6.144 0 0 0 5.849 12a6.144 6.144 0 0 0 6.153 6.153A6.144 6.144 0 0 0 18.155 12a6.144 6.144 0 0 0-6.153-6.153Zm0 10.152a4.007 4.007 0 0 1-4-3.999 4.007 4.007 0 0 1 4-3.999 4.007 4.007 0 0 1 3.999 4 4.007 4.007 0 0 1-4 3.998Zm6.405-11.838c-.795 0-1.437.642-1.437 1.437s.642 1.437 1.437 1.437a1.433 1.433 0 0 0 1.328-1.987 1.435 1.435 0 0 0-1.328-.887Zm5.589 7.84c0-1.657.015-3.298-.078-4.95-.093-1.92-.531-3.625-1.935-5.029C20.576.615 18.875.18 16.955.087 15.299-.006 13.658.01 12.005.01c-1.656 0-3.297-.015-4.95.078C5.135.18 3.43.618 2.027 2.022.62 3.43.185 5.13.092 7.05-.001 8.706.014 10.347.014 12s-.015 3.297.078 4.95c.093 1.92.53 3.624 1.935 5.028 1.407 1.407 3.108 1.842 5.028 1.935 1.656.093 3.297.078 4.95.078 1.656 0 3.297.015 4.95-.078 1.92-.093 3.624-.53 5.028-1.935 1.407-1.407 1.842-3.108 1.935-5.028.096-1.653.078-3.294.078-4.95Zm-2.64 7.073a3.812 3.812 0 0 1-.906 1.374 3.838 3.838 0 0 1-1.374.906c-1.578.627-5.325.486-7.074.486-1.75 0-5.5.141-7.077-.483a3.812 3.812 0 0 1-1.374-.906 3.838 3.838 0 0 1-.906-1.374c-.624-1.58-.483-5.328-.483-7.077 0-1.749-.141-5.499.483-7.077.219-.546.483-.954.906-1.374.423-.42.828-.687 1.374-.906 1.578-.624 5.328-.483 7.077-.483 1.749 0 5.499-.14 7.077.483.546.22.954.483 1.374.906.423.423.687.828.906 1.374.624 1.578.483 5.328.483 7.077 0 1.75.14 5.496-.486 7.074Z" fill="#E61F5A"/></svg><svg fill="none" viewBox="0 0 102 75" id="logo" xmlns="http://www.w3.org/2000/svg"><g clip-path="url(#ka)"><path d="M102 .146C89.123 8.828 87.752 15.13 86.636 17.057c-1.068 1.976-1.864 9.768-3.713 13.542-1.865 3.823-8.638 6.836-10.535 8.1-1.865 1.263-4.51 6.171-6.678 10.4-17.228-.713-26.68 6.284-41.31 15.161 4.686-1.571 6.901-2.705 6.901-2.705 15.013-5.831 22.201-11.064 44.8-7.97.176 0 .303.097.447.13a1.28 1.28 0 0 1 .494 1.75l-8.59 15.518a1.905 1.905 0 0 1-2.088.988c-20.209-3.856-36.162 2.802-50.825 3.013C3.841 75.162 0 69.557 0 69.298c0-.178.096-.275.27-.275 0 0 6.105 0 16.433-2.479 11.73-22.726 22.185-30.68 33.564-30.68 0 0 11.427 0 14.44 10.027 3.633-6.431 4.51-7.97 4.51-7.97.844-1.523 5.578-12.505 13.77-22.905C91.194 4.65 97.394 2.073 102 .146Z" fill="#737373"/></g><defs><clipPath id="ka"><path fill="#fff" d="M0 0h102v75H0z"/></clipPath></defs></svg><svg fill="none" viewBox="0 0 84 59" id="lyft" xmlns="http://www.w3.org/2000/svg"><g clip-path="url(#la)"><path d="M.5.995h12.612V35.01c0 5.395 2.432 8.605 4.41 9.942-2.06 1.809-8.3 3.406-13.002-.456C1.764 42.213.5 38.416.5 34.879V.995Zm78.769 28.278v-3.586h3.858V13.17h-4.23C77.258 5.624 70.596.017 62.636.017c-9.176 0-16.65 7.498-16.65 16.739v29.206c2.595.375 5.74-.049 8.382-2.281 2.772-2.282 4.02-6.063 4.02-9.616v-1.092h6.29V20.456h-6.29v-3.798c0-5.64 8.462-5.64 8.462 0v12.566c0 9.225 7.457 16.738 16.649 16.738V33.494a4.228 4.228 0 0 1-4.231-4.221ZM31.56 13.137v18.418c0 2.51-3.858 2.51-3.858 0V13.137h-12.45v21.628c0 3.88 1.297 8.801 7.295 10.415 5.998 1.597 9.435-1.728 9.435-1.728-.34 2.184-2.35 3.798-5.658 4.124-2.513.26-5.706-.587-7.295-1.271v11.457c4.069 1.223 8.349 1.598 12.58.766 7.635-1.483 12.45-7.888 12.45-16.428V13.056H31.56v.082Z" fill="#737373"/></g><defs><clipPath id="la"><path fill="#fff" transform="translate(.5)" d="M0 0h83v59H0z"/></clipPath></defs></svg><svg fill="none" viewBox="0 0 48 41" id="page-services-icon-1" xmlns="http://www.w3.org/2000/svg"><path d="M42.589 8.526h-5.07v-5.07a3.38 3.38 0 0 0-3.38-3.38H13.861a3.38 3.38 0 0 0-3.38 3.38v5.07h-5.07a5.07 5.07 0 0 0-5.07 5.07v23.657a3.38 3.38 0 0 0 3.38 3.38H44.28a3.38 3.38 0 0 0 3.38-3.38V13.595a5.07 5.07 0 0 0-5.07-5.07ZM13.86 3.456h20.278v5.07H13.861v-5.07Zm30.418 33.797H3.721V22.044H17.24v8.45h13.518v-8.45h13.52v15.21ZM20.62 22.044h6.76v5.07h-6.76v-5.07Zm-16.898-3.38v-5.069a1.69 1.69 0 0 1 1.69-1.69h37.177a1.69 1.69 0 0 1 1.69 1.69v5.07H3.721Z" fill="#0D5C63"/></svg><svg fill="none" viewBox="0 0 48 48" id="page-services-icon-2" xmlns="http://www.w3.org/2000/svg"><path d="M46.2 9.489V1.897C46.2.847 45.342 0 44.28 0H3.72C2.658 0 1.8.848 1.8 1.897v7.592c-1.002.06-1.8.883-1.8 1.89v7.806a10.38 10.38 0 0 0 .864 4.173c.258.604.576 1.173.936 1.712v20.448a1.91 1.91 0 0 0 1.92 1.897h40.56c1.062 0 1.92-.848 1.92-1.897V25.07c.366-.54.679-1.114.936-1.712.57-1.322.864-2.727.864-4.173V11.38a1.905 1.905 0 0 0-1.8-1.891ZM6.12 4.267h35.76v5.216H6.12V4.267Zm21.72 38.886h-7.68v-6.17h7.68v6.17Zm14.064 0H31.68v-8.066a1.906 1.906 0 0 0-1.92-1.897H18.24c-1.062 0-1.92.848-1.92 1.897v8.066H6.12V28.8c.174.082.354.165.54.236a10.93 10.93 0 0 0 4.224.836 11.004 11.004 0 0 0 6.546-2.146.039.039 0 0 1 .036 0c.716.53 1.496.97 2.322 1.31a10.93 10.93 0 0 0 4.224.836 11.004 11.004 0 0 0 6.546-2.146.039.039 0 0 1 .036 0c.716.53 1.496.97 2.322 1.31a10.93 10.93 0 0 0 4.224.836c1.464 0 2.88-.278 4.224-.835.18-.078.36-.155.54-.238v14.355Zm1.776-23.968c0 3.544-2.94 6.419-6.558 6.419a6.586 6.586 0 0 1-5.712-3.254.963.963 0 0 0-.834-.48h-.036a.97.97 0 0 0-.834.48 6.515 6.515 0 0 1-2.409 2.387 6.617 6.617 0 0 1-3.297.867 6.576 6.576 0 0 1-5.7-3.242.993.993 0 0 0-1.716 0 6.539 6.539 0 0 1-2.413 2.377 6.641 6.641 0 0 1-3.293.865c-3.618 0-6.558-2.875-6.558-6.419V13.78c0-.018.012-.03.03-.03h39.3c.018 0 .03.012.03.03v5.405Z" fill="#0D5C63"/></svg><svg fill="none" viewBox="0 0 48 38" id="page-services-icon-3" xmlns="http://www.w3.org/2000/svg"><path d="M44.567.011H3.432c-.909.001-1.78.364-2.423 1.01A3.458 3.458 0 0 0 .004 3.457v31.007c0 .914.362 1.79 1.005 2.436a3.423 3.423 0 0 0 2.423 1.01h41.135a3.424 3.424 0 0 0 2.423-1.01 3.459 3.459 0 0 0 1.005-2.436V3.457c0-.914-.362-1.79-1.005-2.436a3.422 3.422 0 0 0-2.423-1.01ZM3.432 3.457h18.854v31.007H3.432V3.457Zm22.282 31.007V3.457h18.853l.004 31.007H25.714Z" fill="#fff"/></svg><svg fill="none" viewBox="0 0 147 73" id="reddit" xmlns="http://www.w3.org/2000/svg"><g clip-path="url(#pa)"><g clip-path="url(#pb)"><path d="M104.926 28.161c-2.395 0-4.503.995-6.051 2.55-5.7-3.96-13.38-6.51-21.89-6.783l4.422-20.012L95.49 7.09c0 3.463 2.81 6.286 6.259 6.286 3.512 0 6.338-2.903 6.338-6.367 0-3.463-2.81-6.366-6.338-6.366-2.46 0-4.583 1.492-5.636 3.528L80.56.708c-.782-.208-1.549.353-1.756 1.139l-4.854 22.065c-8.446.353-16.046 2.902-21.762 6.863a8.468 8.468 0 0 0-6.131-2.614c-8.877 0-11.783 11.963-3.656 16.052-.288 1.267-.416 2.614-.416 3.96 0 13.439 15.073 24.327 33.578 24.327 18.585 0 33.657-10.888 33.657-24.326 0-1.347-.144-2.758-.495-4.025 7.967-4.105 5.029-15.988-3.8-15.988Zm-49.64 16.902c0-3.528 2.81-6.366 6.34-6.366 3.448 0 6.258 2.822 6.258 6.366 0 3.464-2.81 6.286-6.259 6.286-3.513.016-6.339-2.822-6.339-6.286Zm34.216 14.993c-5.811 5.837-22.209 5.837-28.02 0-.64-.56-.64-1.555 0-2.197.558-.56 1.548-.56 2.107 0 4.439 4.57 19.16 4.65 23.79 0 .559-.56 1.549-.56 2.108 0 .654.642.654 1.636.015 2.197Zm-.127-8.691c-3.449 0-6.26-2.822-6.26-6.286 0-3.528 2.811-6.366 6.26-6.366a6.327 6.327 0 0 1 6.338 6.366c-.016 3.448-2.826 6.286-6.338 6.286Z" fill="#737373"/></g></g><defs><clipPath id="pa"><path fill="#fff" transform="translate(0 .5)" d="M0 0h151v72H0z"/></clipPath><clipPath id="pb"><path fill="#fff" transform="translate(37.5 .5)" d="M0 0h76v72H0z"/></clipPath></defs></svg><svg fill="none" viewBox="0 0 48 45" id="stat-icon-1" xmlns="http://www.w3.org/2000/svg"><g clip-path="url(#qa)" fill="#0D5C63"><path d="M23.84 20.802c4.305 0 7.652-3.495 7.652-7.785s-3.507-7.626-7.81-7.626c-4.305 0-7.653 3.495-7.653 7.626 0 4.29 3.507 7.785 7.812 7.785ZM23.682 8.57c.16 0 .16 0 0 0 2.55 0 4.623 2.065 4.623 4.607 0 2.542-2.072 4.449-4.623 4.449a4.448 4.448 0 0 1-4.463-4.449c0-2.542 2.072-4.607 4.463-4.607ZM47.434 19.849c-3.03-2.701-7.015-4.131-11.16-3.972H35c-.319 1.27-.797 2.383-1.434 3.336.956-.159 1.753-.159 2.71-.159 3.028-.159 6.057.795 8.449 2.542v11.44h3.188v-12.71l-.478-.477ZM32.609 5.708c.797-1.906 3.029-2.86 5.101-2.065 1.913.794 2.87 3.019 2.072 5.084-.637 1.43-2.072 2.383-3.507 2.383-.319 0-.797 0-1.116-.159.16.795.16 1.59.16 2.225v.953c.319 0 .637.159.956.159 3.986 0 7.174-3.178 7.174-6.99 0-3.973-3.188-7.15-7.014-7.15-2.55 0-4.783 1.27-6.058 3.495.797.476 1.594 1.112 2.232 2.065ZM14.435 19.372c-.638-.953-1.116-2.065-1.434-3.336h-1.276A16.438 16.438 0 0 0 .566 19.849l-.478.477v12.71h3.188v-11.44c2.55-1.747 5.42-2.7 8.45-2.541.956 0 1.912.159 2.71.317ZM11.725 14.13c.319 0 .637 0 .956-.16v-.953c0-.794 0-1.588.16-2.224-.32.159-.797.159-1.116.159-2.073 0-3.826-1.748-3.826-3.813 0-2.066 1.753-3.813 3.826-3.813 1.594 0 3.029.953 3.666 2.383.638-.795 1.594-1.589 2.391-2.224C15.71.148 11.406-.965 8.058 1.1 4.71 3.167 3.594 7.457 5.667 10.793c1.275 2.066 3.507 3.337 6.058 3.337ZM36.913 29.382l-.319-.477c-3.188-3.495-7.652-5.56-12.434-5.402-4.783-.159-9.406 1.907-12.594 5.402l-.319.477v12.075c0 1.43 1.116 2.7 2.71 2.7h20.405c1.435 0 2.71-1.27 2.71-2.7V29.382h-.16ZM33.725 40.98h-19.29V30.494c2.551-2.542 6.058-3.813 9.725-3.813 3.507-.16 7.014 1.27 9.564 3.813V40.98Z"/></g><defs><clipPath id="qa"><path fill="#fff" d="M0 0h48v44.211H0z"/></clipPath></defs></svg><svg fill="none" viewBox="0 0 48 28" id="stat-icon-2" xmlns="http://www.w3.org/2000/svg"><path d="M43.15 12.282a4.712 4.712 0 0 0-1.682.324l-5.74-4.785a6.214 6.214 0 0 0 .241-1.633c0-3.378-2.666-6.093-5.984-6.093S24 2.81 24 6.188c0 .966.24 1.865.628 2.674l-6.964 8.38a4.855 4.855 0 0 0-.845-.085c-.428 0-.833.073-1.226.18L9.458 11.09c.108-.397.18-.81.18-1.245 0-2.701-2.136-4.875-4.788-4.875S.063 7.144.063 9.845c0 2.7 2.135 4.874 4.787 4.874.429 0 .833-.073 1.226-.18l6.135 6.247a4.728 4.728 0 0 0-.18 1.246c0 2.7 2.136 4.875 4.788 4.875s4.788-2.175 4.788-4.875c0-.578-.115-1.122-.295-1.636l6.973-8.39c.544.161 1.106.276 1.7.276a5.85 5.85 0 0 0 2.712-.685l5.743 4.785c-.045.256-.071.515-.077.775 0 2.7 2.135 4.875 4.788 4.875 2.652 0 4.787-2.174 4.787-4.875 0-2.7-2.135-4.875-4.787-4.875Z" fill="#0D5C63"/></svg><svg fill="none" viewBox="0 0 36 48" id="stat-icon-3" xmlns="http://www.w3.org/2000/svg"><g clip-path="url(#sa)"><path d="M9.064 33.995c-.811-.815-.389-.585-2.345-1.111-.887-.24-1.668-.699-2.373-1.249L.11 42.064c-.41 1.01.356 2.106 1.44 2.065l4.918-.188 3.382 3.589a1.49 1.49 0 0 0 2.467-.465L17.176 35.1c-1.011.566-2.134.898-3.295.898-1.82 0-3.53-.711-4.817-2.003Zm26.663 8.069-4.234-10.429c-.706.551-1.486 1.01-2.374 1.249-1.966.529-1.535.298-2.344 1.11a6.756 6.756 0 0 1-4.818 2.004c-1.161 0-2.284-.332-3.296-.898l4.858 11.965a1.49 1.49 0 0 0 2.467.465l3.383-3.59 4.918.19c1.085.04 1.85-1.057 1.44-2.066Zm-11.181-10.19c1.426-1.458 1.59-1.333 3.62-1.889a3.802 3.802 0 0 0 2.657-2.717c.699-2.662.517-2.34 2.422-4.289.95-.97 1.32-2.385.973-3.71-.697-2.661-.698-2.29 0-4.953a3.901 3.901 0 0 0-.973-3.71c-1.904-1.949-1.723-1.628-2.421-4.29A3.802 3.802 0 0 0 28.165 3.6c-2.602-.713-2.288-.527-4.195-2.476A3.703 3.703 0 0 0 20.34.13c-2.601.712-2.238.713-4.844 0a3.7 3.7 0 0 0-3.63.994C9.963 3.071 10.277 2.886 7.673 3.6a3.802 3.802 0 0 0-2.657 2.717c-.697 2.662-.517 2.341-2.422 4.29a3.899 3.899 0 0 0-.973 3.71c.698 2.659.698 2.287 0 4.952a3.903 3.903 0 0 0 .973 3.711c1.905 1.948 1.724 1.627 2.422 4.29a3.802 3.802 0 0 0 2.657 2.716c2.089.572 2.245.482 3.62 1.888a3.697 3.697 0 0 0 4.642.546 3.692 3.692 0 0 1 3.97 0 3.696 3.696 0 0 0 4.64-.546ZM9.114 16.493c0-4.971 3.942-9.001 8.805-9.001 4.863 0 8.805 4.03 8.805 9.002 0 4.971-3.942 9.001-8.805 9.001-4.863 0-8.805-4.03-8.805-9.001Z" fill="#0D5C63"/></g><defs><clipPath id="sa"><path fill="#fff" d="M0 0h35.84v48H0z"/></clipPath></defs></svg><svg fill="none" viewBox="0 0 48 41" id="stat-icon-4" xmlns="http://www.w3.org/2000/svg"><g clip-path="url(#ta)"><path d="M42.589 8.526h-5.07v-5.07a3.38 3.38 0 0 0-3.38-3.38H13.861a3.38 3.38 0 0 0-3.38 3.38v5.07h-5.07a5.07 5.07 0 0 0-5.07 5.07v23.657a3.38 3.38 0 0 0 3.38 3.38H44.28a3.38 3.38 0 0 0 3.38-3.38V13.595a5.07 5.07 0 0 0-5.07-5.07ZM13.86 3.456h20.278v5.07H13.861v-5.07Zm30.418 33.797H3.721V22.044H17.24v8.45h13.518v-8.45h13.52v15.21ZM20.62 22.044h6.76v5.07h-6.76v-5.07Zm-16.898-3.38v-5.069a1.69 1.69 0 0 1 1.69-1.69h37.177a1.69 1.69 0 0 1 1.69 1.69v5.07H3.721Z" fill="#0D5C63"/></g><defs><clipPath id="ta"><path fill="#fff" d="M0 0h48v40.709H0z"/></clipPath></defs></svg><svg fill="none" viewBox="0 0 151 43" id="stripe" xmlns="http://www.w3.org/2000/svg"><g clip-path="url(#ua)"><g clip-path="url(#ub)"><path d="m50.555 3.793-6.968 1.464-.033 22.654c0 4.184 3.187 6.889 7.42 6.889 2.35 0 4.071-.43 5.02-.939v-5.377c-.916.366-5.423 1.67-5.423-2.498V15.932h5.424V9.918H50.57l-.016-6.125Zm14.34 8.21-.435-2.085h-6.18v24.373h7.13V17.889c1.69-2.196 4.538-1.766 5.456-1.48V9.92c-.966-.335-4.297-.955-5.971 2.083ZM79.749.5l-7.178 1.511v5.76l7.178-1.512V.5ZM31.227 17.093c0-1.098.933-1.527 2.43-1.543 2.172 0 4.94.652 7.113 1.814v-6.65c-2.366-.923-4.731-1.289-7.097-1.289-5.794 0-9.656 2.99-9.656 7.986 0 7.828 10.863 6.555 10.863 9.928 0 1.304-1.143 1.734-2.736 1.734-2.366 0-5.424-.97-7.822-2.26v6.364a20.003 20.003 0 0 0 7.806 1.607c5.938 0 10.026-2.514 10.026-7.604 0-8.416-10.927-6.905-10.927-10.087ZM127 22.391c0-7.239-3.541-12.95-10.333-12.95-6.791 0-10.927 5.711-10.927 12.902 0 8.512 4.876 12.441 11.829 12.441 3.411 0 5.97-.764 7.918-1.83v-5.313c-1.948.97-4.185 1.559-7.017 1.559-2.784 0-5.231-.97-5.553-4.28h13.986c.032-.366.097-1.845.097-2.53Zm-14.147-2.673c0-3.182 1.98-4.518 3.766-4.518 1.754 0 3.621 1.336 3.621 4.518h-7.387ZM94.684 9.441c-2.8 0-4.602 1.304-5.6 2.211l-.37-1.75H82.42v32.582l7.145-1.495.016-7.987c1.03.748 2.56 1.782 5.054 1.782 5.118 0 9.785-3.69 9.785-12.663.016-8.21-4.716-12.68-9.737-12.68ZM92.978 28.93c-1.673 0-2.671-.605-3.363-1.337l-.048-10.5c.74-.811 1.77-1.4 3.411-1.4 2.608 0 4.41 2.896 4.41 6.586.016 3.803-1.754 6.65-4.41 6.65Zm-20.39 5.36h7.177V9.919h-7.177v24.373Z" fill="#737373"/></g></g><defs><clipPath id="ua"><path fill="#fff" transform="translate(0 .5)" d="M0 0h151v42H0z"/></clipPath><clipPath id="ub"><path fill="#fff" transform="translate(24 .5)" d="M0 0h103v42H0z"/></clipPath></defs></svg><svg fill="none" viewBox="0 0 24 20" id="twitter" xmlns="http://www.w3.org/2000/svg"><path d="M24 2.465a9.74 9.74 0 0 1-2.829.772A4.96 4.96 0 0 0 23.332.49a9.613 9.613 0 0 1-3.117 1.205A4.902 4.902 0 0 0 18.58.526a4.84 4.84 0 0 0-1.956-.408c-2.723 0-4.913 2.24-4.913 4.988 0 .386.046.772.121 1.143a13.896 13.896 0 0 1-10.13-5.22 5.007 5.007 0 0 0-.668 2.518c0 1.731.867 3.257 2.19 4.155a4.901 4.901 0 0 1-2.222-.635v.062c0 2.424 1.688 4.432 3.939 4.894a5.133 5.133 0 0 1-1.294.17c-.32 0-.622-.032-.928-.076a4.931 4.931 0 0 0 4.593 3.459 9.756 9.756 0 0 1-6.1 2.131c-.412 0-.792-.015-1.187-.061a13.765 13.765 0 0 0 7.546 2.236c9.035 0 13.98-7.596 13.98-14.189 0-.216 0-.432-.015-.649.957-.71 1.795-1.59 2.463-2.579Z" fill="#21A6DF"/></svg><svg fill="none" viewBox="0 0 32 32" id="whoWeAre-icon-1" xmlns="http://www.w3.org/2000/svg"><path fill-rule="evenodd" clip-rule="evenodd" d="M18.237 8.772a4.25 4.25 0 1 1-4.72-7.068 4.25 4.25 0 0 1 4.722 7.068h-.002Zm-1.18-5.3a2.125 2.125 0 1 0-2.363 3.53 2.125 2.125 0 0 0 2.363-3.528v-.002Zm5.547.064a3.175 3.175 0 0 1 4.026.399 3.215 3.215 0 0 1-1.034 5.228 3.17 3.17 0 0 1-3.475-.693 3.213 3.213 0 0 1 .485-4.932l-.002-.002Zm1.02 3.42a1.061 1.061 0 1 0 1.498-1.504 1.082 1.082 0 0 0-.746-.318 1.06 1.06 0 0 0-1.063 1.068c.001.283.112.555.31.757v-.002ZM5.654 25.399h3.847v2.135H5.655a2.543 2.543 0 0 1-1.79-.759 2.571 2.571 0 0 1-.74-1.806v-3.846a2.118 2.118 0 0 1-1.508-.706 2.139 2.139 0 0 1-.616-1.561v-4.637a3.844 3.844 0 0 1 1.105-2.673 3.75 3.75 0 0 1 2.635-1.112h3.91a6.188 6.188 0 0 0-1.169 2.138H4.741a1.696 1.696 0 0 0-1.148.493c-.3.309-.468.723-.467 1.154v4.743H5.25v6.005a.43.43 0 0 0 .106.321.51.51 0 0 0 .298.106v.005Zm15.513-13.851a3.75 3.75 0 0 0-2.656-1.112h-5.27a3.75 3.75 0 0 0-2.635 1.112A3.843 3.843 0 0 0 9.5 14.22v6.753c-.003.58.218 1.139.616 1.56a2.124 2.124 0 0 0 1.509.705v4.937a2.555 2.555 0 0 0 .744 1.817 2.56 2.56 0 0 0 1.38.663H18a2.444 2.444 0 0 0 2.126-2.48v-4.939a2.118 2.118 0 0 0 1.509-.705 2.139 2.139 0 0 0 .616-1.56v-6.753a3.825 3.825 0 0 0-1.084-2.673v.002Zm-1.041 9.53H18v7.098a.43.43 0 0 1-.128.297.361.361 0 0 1-.297.128h-3.421a.446.446 0 0 1-.425-.425v-7.098h-2.104v-6.86c0-.43.168-.845.467-1.153.306-.304.716-.48 1.148-.493h5.27a1.653 1.653 0 0 1 1.498 1.02c.08.199.12.412.117.627v6.86Zm5.971 6.454h-3.846v-2.136h3.825a.51.51 0 0 0 .297-.106.424.424 0 0 0 .128-.323v-6.005h2.125v-4.743c0-.431-.167-.845-.468-1.154a1.696 1.696 0 0 0-1.147-.493H24.27a6.184 6.184 0 0 0-1.17-2.138h3.91c.991.01 1.938.409 2.636 1.112a3.844 3.844 0 0 1 1.105 2.673v4.637c0 .58-.22 1.136-.614 1.557a2.236 2.236 0 0 1-1.511.708v3.846a2.57 2.57 0 0 1-.74 1.806 2.544 2.544 0 0 1-1.789.759ZM7.376 2.996a3.175 3.175 0 0 0-2.945 1.98 3.224 3.224 0 0 0 .692 3.492 3.181 3.181 0 0 0 5.44-2.266 3.212 3.212 0 0 0-1.967-2.961 3.179 3.179 0 0 0-1.22-.245Zm0 4.275a1.06 1.06 0 0 1-1.063-1.069 1.071 1.071 0 0 1 1.063-1.068 1.082 1.082 0 0 1 1.062 1.068 1.071 1.071 0 0 1-1.062 1.07Z" fill="#FF7B47"/></svg><svg fill="none" viewBox="0 0 32 32" id="whoWeAre-icon-2" xmlns="http://www.w3.org/2000/svg"><g clip-path="url(#xa)"><path d="m29.815 10.365-1.998 3.006a13 13 0 0 1-.358 12.317H4.937A13 13 0 0 1 22.015 7.57l3.007-2a16.25 16.25 0 0 0-22.88 21.743 3.25 3.25 0 0 0 2.795 1.625h22.506a3.25 3.25 0 0 0 2.827-1.625 16.25 16.25 0 0 0-.438-16.965l-.017.017ZM13.907 21.48a3.25 3.25 0 0 0 4.598 0l9.198-13.797-13.796 9.198a3.25 3.25 0 0 0 0 4.599Z" fill="#FF7B47"/></g><defs><clipPath id="xa"><path fill="#fff" d="M0 0h32v32H0z"/></clipPath></defs></svg><svg fill="none" viewBox="0 0 24 18" id="youtube" xmlns="http://www.w3.org/2000/svg"><path d="M23.47 2.932a3.192 3.192 0 0 0-.775-1.41 2.966 2.966 0 0 0-1.34-.814C19.488.177 11.988.177 11.988.177s-7.5 0-9.367.53a2.966 2.966 0 0 0-1.34.815c-.372.39-.639.877-.775 1.41A34.16 34.16 0 0 0 0 9a34.161 34.161 0 0 0 .505 6.068c.136.533.403 1.02.775 1.41.37.39.833.67 1.34.814 1.866.531 9.367.531 9.367.531s7.5 0 9.367-.531a2.966 2.966 0 0 0 1.34-.815c.371-.39.639-.876.775-1.409.348-2.002.518-4.033.505-6.068a34.163 34.163 0 0 0-.505-6.068Zm-13.88 9.85V5.218l6.225 3.78-6.225 3.782Z" fill="#E42F08"/></svg></svg>